<svg width="30" height="30" viewBox="0 0 30 30" xmlns="http://www.w3.org/2000/svg">
<path fill="#ffffff" d="M30 11.6984C30 13.0826 28.79 14.2663 27.375 14.2663H21.5244C22.4818 15.2652 22.5993 17.1823 21.1553 18.4232C21.9925 19.7608 21.2811 21.5296 20.1914 22.0744C20.7172 24.9538 18.9055 26.25 15.9375 26.25C15.7766 26.25 15.1596 26.2381 15 26.2386C11.3689 26.2484 10.4945 24.4184 7.75014 23.9936C7.06617 23.8877 6.5625 23.2968 6.5625 22.6046V12.5544L6.56262 12.5543C6.56326 11.4782 7.18412 10.4514 8.23043 9.98525C9.92297 9.22389 13.821 7.11193 14.5312 5.45461C14.9881 4.38856 15.7842 3.75047 16.875 3.75C18.8802 3.74918 20.2589 5.80652 19.4601 7.67039C19.2502 8.16018 18.9731 8.64715 18.6308 9.13043H27.375C28.749 9.13043 30 10.3341 30 11.6984ZM5.625 11.7188V22.9688C5.625 23.7454 4.99541 24.375 4.21875 24.375H1.40625C0.62959 24.375 0 23.7454 0 22.9688V11.7188C0 10.9421 0.62959 10.3125 1.40625 10.3125H4.21875C4.99541 10.3125 5.625 10.9421 5.625 11.7188ZM3.98438 21.5625C3.98438 20.9153 3.45973 20.3906 2.8125 20.3906C2.16527 20.3906 1.64062 20.9153 1.64062 21.5625C1.64062 22.2097 2.16527 22.7344 2.8125 22.7344C3.45973 22.7344 3.98438 22.2097 3.98438 21.5625Z" />
</svg>
