<svg width="20" height="20" viewBox="0 0 20 20" fill="#fff" xmlns="http://www.w3.org/2000/svg">
<path fill="%23ffffff" d="M19.4492 5.55078L17.6484 7.35156C17.4648 7.53516 17.168 7.53516 16.9844 7.35156L12.6484 3.01562C12.4648 2.83203 12.4648 2.53516 12.6484 2.35156L14.4492 0.550781C15.1797 -0.179688 16.3672 -0.179688 17.1016 0.550781L19.4492 2.89844C20.1836 3.62891 20.1836 4.81641 19.4492 5.55078ZM11.1016 3.89844L0.843755 14.1562L0.0156302 18.9023C-0.0976511 19.543 0.460943 20.0977 1.10157 19.9883L5.84766 19.1562L16.1055 8.89844C16.2891 8.71484 16.2891 8.41797 16.1055 8.23438L11.7695 3.89844C11.582 3.71484 11.2852 3.71484 11.1016 3.89844ZM4.84766 13.2773C4.63282 13.0625 4.63282 12.7187 4.84766 12.5039L10.8633 6.48828C11.0781 6.27344 11.4219 6.27344 11.6367 6.48828C11.8516 6.70313 11.8516 7.04687 11.6367 7.26172L5.6211 13.2773C5.40625 13.4922 5.06251 13.4922 4.84766 13.2773ZM3.43751 16.5625H5.31251V17.9805L2.79297 18.4219L1.57813 17.207L2.01954 14.6875H3.43751V16.5625Z" />
</svg>
